<?xml version="1.0" encoding="UTF-8" standalone="no"?>
<svg width="34px" height="20px" viewBox="0 0 34 20" version="1.1" xmlns="http://www.w3.org/2000/svg" xmlns:xlink="http://www.w3.org/1999/xlink" xmlns:sketch="http://www.bohemiancoding.com/sketch/ns">
    <!-- Generator: Sketch 3.2.2 (9983) - http://www.bohemiancoding.com/sketch -->
    <title>UK</title>
    <desc>Created with Sketch.</desc>
    <defs>
        <rect id="path-1" x="0" y="0" width="34" height="20"></rect>
    </defs>
    <g id="Page-1" stroke="none" stroke-width="1" fill="none" fill-rule="evenodd" sketch:type="MSPage">
        <g id="Artboard-2" sketch:type="MSArtboardGroup" transform="translate(-94.000000, -40.000000)">
            <g id="UK" sketch:type="MSLayerGroup" transform="translate(94.000000, 40.000000)">
                <mask id="mask-2" sketch:name="Rectangle 2" fill="white">
                    <use xlink:href="#path-1"></use>
                </mask>
                <use id="Rectangle-2" fill="#FFFFFF" sketch:type="MSShapeGroup" xlink:href="#path-1"></use>
                <path d="M4.90192379,0 L13,0 L13,4.67542648 L4.90192379,6.66133815e-16 Z M9.29422863,6 L0,6 L0,0.633974596 L9.29422863,6 Z" id="Rectangle-10" fill="#3183B3" sketch:type="MSShapeGroup" mask="url(#mask-2)"></path>
                <path d="M24.7416698,14 L34,14 L34,19.3452995 L24.7416698,14 Z M29.1339746,20 L21,20 L21,15.3038476 L29.1339746,20 Z" id="Rectangle-12" fill="#3183B3" sketch:type="MSShapeGroup" mask="url(#mask-2)"></path>
                <path d="M9.79422863,14 L0,14 L0,19.6547005 L9.79422863,14 Z M13,15.6132487 L13,20 L5.40192379,20 L13,15.6132487 Z" id="Rectangle-11" fill="#3183B3" sketch:type="MSShapeGroup" mask="url(#mask-2)"></path>
                <path d="M28.5980762,0 L21,0 L21,4.38675135 L28.5980762,3.33066907e-16 Z M34,0.345299462 L34,6 L24.2057714,6 L34,0.345299462 Z" id="Rectangle-13" fill="#3183B3" sketch:type="MSShapeGroup" mask="url(#mask-2)"></path>
                <rect id="Rectangle-5" fill="#F86262" sketch:type="MSShapeGroup" mask="url(#mask-2)" x="0" y="8" width="34" height="4"></rect>
                <rect id="Rectangle-9" fill="#F86262" sketch:type="MSShapeGroup" mask="url(#mask-2)" x="15" y="0" width="4" height="20"></rect>
            </g>
        </g>
    </g>
</svg>