<?xml version="1.0" encoding="UTF-8"?>
<svg width="590px" height="120px" viewBox="0 0 590 120" version="1.1" xmlns="http://www.w3.org/2000/svg" xmlns:xlink="http://www.w3.org/1999/xlink">
    <!-- Generator: Sketch 41 (35326) - http://www.bohemiancoding.com/sketch -->
    <title>logo_horizontal</title>
    <desc>Created with Sketch.</desc>
    <defs></defs>
    <g id="Page-1" stroke="none" stroke-width="1" fill="none" fill-rule="evenodd">
        <g id="logo_horizontal" fill="#FFFFFF">
            <g id="Group-2" transform="translate(124.000000, 18.000000)">
                <path d="M31.1605659,40.9231118 C28.7826174,40.9231118 26.7602872,41.7924783 25.0955734,43.5291988 C23.4308596,45.2684348 22.5982529,47.3920435 22.5982529,49.910087 C22.5982529,52.3858696 23.4398499,54.5029379 25.1250418,56.2577702 C26.8107331,58.0161242 28.8225745,58.8950497 31.1605659,58.8950497 C33.538015,58.8950497 35.5718328,58.0161242 37.2560257,56.2577702 C38.941717,54.5029379 39.7858114,52.3858696 39.7858114,49.910087 C39.7858114,47.3920435 38.9517063,45.2684348 37.2869925,43.5291988 C35.6207803,41.7924783 33.5804695,40.9231118 31.1605659,40.9231118 Z M31.7564266,18.8211801 C40.1614084,18.8211801 47.3671768,21.8649689 53.3727331,27.954559 C59.3812862,34.0456584 62.3825659,41.343205 62.3825659,49.8507205 C62.3825659,58.4749565 59.3388317,65.8233168 53.2533612,71.8932857 C47.1688896,77.964764 39.8237706,81 31.2210011,81 C22.617732,81 15.2646217,77.9531925 9.15767417,71.8641056 C3.05322401,65.7735093 0,58.4347081 0,49.8507205 C0,41.1047329 3.05322401,33.7473168 9.15767417,27.7759565 C15.2646217,21.8061056 22.7950418,18.8211801 31.7564266,18.8211801 L31.7564266,18.8211801 Z" id="Fill-4"></path>
                <path d="M106.608613,39.2497826 L107.567085,60.2519255 L88.1868789,60.2569565 L88.1868789,81 L68.1323966,81 L68.1323966,35.2510994 C68.1323966,30.1003043 69.0084566,25.7071863 70.7590782,22.0712422 C72.9761994,17.4250621 76.3455841,13.6351677 80.8682315,10.701559 C85.38988,7.76593789 90.0988274,6.29938509 94.9965723,6.29938509 L97.1412712,6.3542236 L97.1412712,27.5254099 C96.677269,27.4901925 96.337134,27.4725839 96.1228639,27.4725839 C93.5845874,27.4725839 91.6271876,28.3188075 90.2506645,30.0112547 C88.8741415,31.7037019 88.1868789,34.115087 88.1868789,37.2489317 L88.1868789,39.0842609 L106.608613,39.2497826" id="Fill-5"></path>
                <path d="M134.94421,39.0842609 L134.94421,60.2569565 L125.988319,60.2569565 L125.988319,81 L105.935335,81 L105.935335,35.2510994 C105.935335,30.1003043 106.811395,25.7071863 108.562517,22.0712422 C110.779138,17.4250621 114.147524,13.6351677 118.669672,10.701559 C123.19182,7.76593789 127.901766,6.29938509 132.799511,6.29938509 L134.94421,6.3542236 L134.94421,27.5254099 C134.47871,27.4901925 134.140073,27.4725839 133.925803,27.4725839 C131.387027,27.4725839 129.430626,28.3188075 128.053603,30.0112547 C126.676581,31.7037019 125.988319,34.115087 125.988319,37.2489317 L125.988319,39.0842609 L134.94421,39.0842609" id="Fill-6"></path>
                <path d="M199.034943,6.37937888 L199.034943,27.0137516 L208.043278,27.0137516 L208.043278,48.347441 L199.034943,48.347441 C199.034943,52.6328944 199.704225,55.585118 201.044787,57.2061242 C202.386347,58.8261242 204.842712,59.6366273 208.418875,59.6366273 L208.418875,80.8636584 C207.381488,80.899882 206.612313,80.9179938 206.11135,80.9179938 C201.571721,80.9179938 197.290815,79.856441 193.269629,77.7303168 C189.247445,75.606205 186.021906,72.7249193 183.590514,69.0889752 C180.517312,64.4443043 178.979462,58.2857888 178.979462,50.6164472 L178.979462,6.37937888 L199.034943,6.37937888" id="Fill-7"></path>
                <path d="M227.235685,0.477950311 C229.95277,0.477950311 232.303248,1.44089441 234.28612,3.36778882 C236.27099,5.29367702 237.262427,7.57073292 237.262427,10.1999627 C237.262427,13.0082981 236.323934,15.3130248 234.446448,17.1136398 C232.57096,18.9142547 230.16704,19.8143106 227.235685,19.8143106 C224.303831,19.8143106 221.89991,18.9142547 220.023423,17.1136398 C218.145938,15.3130248 217.207445,13.0082981 217.207445,10.1999627 C217.207445,7.57073292 218.200879,5.29367702 220.183751,3.36778882 C222.169121,1.44089441 224.518101,0.477950311 227.235685,0.477950311 Z M217.154502,81 L237.208484,81 L237.208484,27.1485839 L217.154502,27.1485839 L217.154502,81 Z" id="Fill-8"></path>
                <path d="M320.49662,81 L300.43964,81 L300.43964,51.9396149 C300.43964,49.7078385 300.212883,48.1577702 299.746883,47.2954472 C299.280883,46.4311118 298.437788,45.9979379 297.220094,45.9979379 C294.972006,45.9979379 293.85021,47.9977826 293.85021,51.9939503 L293.85021,81 L273.794729,81 L273.794729,51.9396149 C273.794729,49.7078385 273.552988,48.1577702 273.068508,47.2954472 C272.588024,46.4311118 271.738435,45.9979379 270.521741,45.9979379 C268.307616,45.9979379 267.198806,47.9977826 267.198806,51.9939503 L267.198806,81 L247.143325,81 L247.143325,47.8357826 C247.143325,41.7844286 249.164656,36.645205 253.204821,32.4150932 C257.24149,28.183472 262.141233,26.0674099 267.896058,26.0674099 C273.83119,26.0674099 279.157974,28.588472 283.879408,33.6305963 C289.127278,28.588472 294.385136,26.0674099 299.636502,26.0674099 C306.323826,26.0674099 311.686572,28.5170311 315.723741,33.4132547 C318.906326,37.2308199 320.49662,42.7926522 320.49662,50.1037826 L320.49662,81" id="Fill-9"></path>
                <path d="M402.981117,81 L382.926135,81 L382.926135,51.9396149 C382.926135,49.7078385 382.691886,48.1577702 382.226885,47.2954472 C381.763383,46.4311118 380.924283,45.9979379 379.710086,45.9979379 C377.456004,45.9979379 376.328714,47.9977826 376.328714,51.9939503 L376.328714,81 L356.273732,81 L356.273732,51.9396149 C356.273732,49.7078385 356.034489,48.1577702 355.54851,47.2954472 C355.069524,46.4311118 354.220935,45.9979379 353.006238,45.9979379 C350.788118,45.9979379 349.679308,47.9977826 349.679308,51.9939503 L349.679308,81 L329.626324,81 L329.626324,47.8357826 C329.626324,41.7844286 331.644159,36.645205 335.681327,32.4150932 C339.724489,28.183472 344.619736,26.0674099 350.376559,26.0674099 C356.309194,26.0674099 361.636478,28.588472 366.355415,33.6305963 C371.609777,28.588472 376.864139,26.0674099 382.120999,26.0674099 C388.803329,26.0674099 394.165076,28.5170311 398.207738,33.4132547 C401.387826,37.2308199 402.981117,42.7926522 402.981117,50.1037826 L402.981117,81" id="Fill-10"></path>
                <path d="M435.639576,46.7012795 L445.828643,46.7012795 C445.110913,42.7041056 442.879308,40.7052671 439.128332,40.7052671 C436.624519,40.7052671 434.589203,41.7773851 433.014392,43.9191056 C431.442579,46.0623354 430.654924,48.8072795 430.654924,52.1549441 C430.654924,55.6490124 431.408615,58.4749565 432.93248,60.6368012 C434.450352,62.7971366 436.447708,63.8778075 438.914562,63.8778075 C440.916414,63.8778075 442.843346,62.8685776 444.704349,60.8521304 L465.989012,60.8712484 C460.392017,74.5838944 449.008731,81 438.376139,81 C430.438656,81 423.771809,78.3159317 418.374101,72.9513168 C412.974894,67.5856957 410.278787,60.9426894 410.278787,53.0202857 C410.278787,45.1346087 413.001365,38.4734907 418.453016,33.0359255 C423.905666,27.5983602 430.600982,24.8790745 438.535968,24.8790745 C446.292146,24.8790745 452.809653,27.5359752 458.083994,32.8472609 C463.354339,38.1575404 465.989012,44.7019379 465.989012,52.4799503 C465.989012,53.2713354 465.917089,54.5326211 465.775241,56.2602857 L435.373861,56.2602857" id="Fill-11"></path>
                <polyline id="Fill-13" points="68.5744223 38.9871615 51.6450868 38.9871615 54.4780472 59.635118 68.5744223 59.635118"></polyline>
                <path d="M171.029492,26.8618137 L171.029492,41.6334969 C169.676444,41.2551615 168.635561,41.0644845 167.898851,41.0644845 C166.485368,41.0644845 165.275166,41.4946398 164.262752,42.3549503 C163.24884,43.2167702 162.74538,44.2551801 162.74538,45.4706832 C162.74538,46.5070807 163.293293,47.8221988 164.403102,49.4200621 L165.826574,51.4692112 C168.407805,55.1665342 169.693925,58.734559 169.693925,62.1788199 C169.693925,67.2169193 167.521256,71.4827516 163.180414,74.9763168 C158.837573,78.4708882 153.536262,80.2171677 147.276977,80.2171677 C144.266707,80.2171677 141.293398,79.646646 138.345561,78.5076149 L138.345561,63.508528 C140.121655,64.4448075 141.709451,64.9131988 143.086973,64.9131988 C144.713228,64.9131988 146.070772,64.5273168 147.159104,63.7545466 C148.250433,62.9837888 148.795348,62.0143043 148.795348,60.8496149 C148.795348,60.0899255 147.920787,58.4306832 146.170165,55.8754099 C143.376662,51.8244037 141.981659,47.7733975 141.981659,43.7223913 C141.981659,38.8362298 144.091395,34.6287578 148.310369,31.0959503 C152.532838,27.5631429 157.57343,25.7982484 163.43514,25.7982484 C166.011876,25.7982484 168.54266,26.153441 171.029492,26.8618137" id="Fill-14"></path>
            </g>
            <g id="Group">
                <path d="M101.666616,59.8359724 C101.666616,86.2270112 81.5495849,107.49262 56.9122546,107.49262 C32.271886,107.49262 12.1639524,86.231112 12.1639524,59.8359724 C12.1639524,33.4374011 32.2722061,12.1728937 56.9122546,12.1728937 C81.5492648,12.1728937 101.666616,33.4415023 101.666616,59.8359724 Z M113.830569,59.8359724 C113.830569,26.8635357 88.4211402,0 56.9122546,0 C25.3995835,0 1.42108547e-14,26.8600963 1.42108547e-14,59.8359724 C1.42108547e-14,92.808736 25.3996238,119.665513 56.9122546,119.665513 C88.4210999,119.665513 113.830569,92.8052972 113.830569,59.8359724 Z" id="Stroke-1"></path>
                <path d="M40.1343559,23.8363203 L40.1343559,95.119708 C40.1343559,97.5461095 42.0998981,99.5130965 44.5245173,99.5130965 C46.9491365,99.5130965 48.9146787,97.5461095 48.9146787,95.119708 L48.9146787,23.8363203 C48.9146787,21.4099188 46.9491365,19.4429318 44.5245173,19.4429318 C42.0998981,19.4429318 40.1343559,21.4099188 40.1343559,23.8363203 Z M52.5752124,49.7038112 L52.5752124,69.2535034 C52.5752124,71.6799049 54.5407546,73.6468919 56.9653738,73.6468919 C59.3899931,73.6468919 61.3555353,71.6799049 61.3555353,69.2535034 L61.3555353,49.7038112 C61.3555353,47.2774097 59.3899931,45.3104227 56.9653738,45.3104227 C54.5407546,45.3104227 52.5752124,47.2774097 52.5752124,49.7038112 Z M27.6867052,39.8901921 L27.6867052,77.7947792 C27.6867052,80.2211806 29.6522475,82.1881677 32.0768667,82.1881677 C34.5014859,82.1881677 36.4670281,80.2211806 36.4670281,77.7947792 L36.4670281,39.8901921 C36.4670281,37.4637906 34.5014859,35.4968036 32.0768667,35.4968036 C29.6522475,35.4968036 27.6867052,37.4637906 27.6867052,39.8901921 Z M15.2390546,57.1585233 L15.2390546,61.8020989 C15.2390546,64.2285004 17.2045969,66.1954874 19.6292161,66.1954874 C22.0538353,66.1954874 24.0193775,64.2285004 24.0193775,61.8020989 L24.0193775,57.1585233 C24.0193775,54.7321219 22.0538353,52.7651348 19.6292161,52.7651348 C17.2045969,52.7651348 15.2390546,54.7321219 15.2390546,57.1585233 Z M65.0188233,34.5725905 L65.0188233,84.387113 C65.0188233,86.8135144 66.9843655,88.7805015 69.4089847,88.7805015 C71.8336039,88.7805015 73.7991462,86.8135144 73.7991462,84.387113 L73.7991462,34.5725905 C73.7991462,32.146189 71.8336039,30.179202 69.4089847,30.179202 C66.9843655,30.179202 65.0188233,32.146189 65.0188233,34.5725905 Z M89.9078813,53.2525541 L89.9078813,65.7067819 C89.9078813,68.1331834 91.8734235,70.1001704 94.2980427,70.1001704 C96.722662,70.1001704 98.6882042,68.1331834 98.6882042,65.7067819 L98.6882042,53.2525541 C98.6882042,50.8261526 96.722662,48.8591656 94.2980427,48.8591656 C91.8734235,48.8591656 89.9078813,50.8261526 89.9078813,53.2525541 Z M77.4631687,47.0260833 L77.4631687,71.9301288 C77.4631687,74.3565302 79.4287109,76.3235173 81.8533301,76.3235173 C84.2779493,76.3235173 86.2434916,74.3565302 86.2434916,71.9301288 L86.2434916,47.0260833 C86.2434916,44.5996818 84.2779493,42.6326948 81.8533301,42.6326948 C79.4287109,42.6326948 77.4631687,44.5996818 77.4631687,47.0260833 Z" id="Stroke-3"></path>
            </g>
        </g>
    </g>
</svg>